<svg id="visual" viewBox="0 0 2200 900" width="2200" height="900" xmlns="http://www.w3.org/2000/svg" xmlns:xlink="http://www.w3.org/1999/xlink" version="1.1"><rect x="0" y="0" width="2200" height="900" fill="#ffffff"></rect><defs><linearGradient id="grad1_0" x1="59.1%" y1="0%" x2="100%" y2="100%"><stop offset="1.1111111111111072%" stop-color="#95afdf" stop-opacity="1"></stop><stop offset="98.8888888888889%" stop-color="#95afdf" stop-opacity="1"></stop></linearGradient></defs><defs><linearGradient id="grad1_1" x1="59.1%" y1="0%" x2="100%" y2="100%"><stop offset="1.1111111111111072%" stop-color="#95afdf" stop-opacity="1"></stop><stop offset="98.8888888888889%" stop-color="#cbd6ef" stop-opacity="1"></stop></linearGradient></defs><defs><linearGradient id="grad1_2" x1="59.1%" y1="0%" x2="100%" y2="100%"><stop offset="1.1111111111111072%" stop-color="#ffffff" stop-opacity="1"></stop><stop offset="98.8888888888889%" stop-color="#cbd6ef" stop-opacity="1"></stop></linearGradient></defs><defs><linearGradient id="grad2_0" x1="0%" y1="0%" x2="40.9%" y2="100%"><stop offset="1.1111111111111072%" stop-color="#95afdf" stop-opacity="1"></stop><stop offset="98.8888888888889%" stop-color="#95afdf" stop-opacity="1"></stop></linearGradient></defs><defs><linearGradient id="grad2_1" x1="0%" y1="0%" x2="40.9%" y2="100%"><stop offset="1.1111111111111072%" stop-color="#cbd6ef" stop-opacity="1"></stop><stop offset="98.8888888888889%" stop-color="#95afdf" stop-opacity="1"></stop></linearGradient></defs><defs><linearGradient id="grad2_2" x1="0%" y1="0%" x2="40.9%" y2="100%"><stop offset="1.1111111111111072%" stop-color="#cbd6ef" stop-opacity="1"></stop><stop offset="98.8888888888889%" stop-color="#ffffff" stop-opacity="1"></stop></linearGradient></defs><g transform="translate(2200, 0)"><path d="M0 750C-69.3 752.4 -138.7 754.7 -194.6 726.4C-250.6 698 -293.2 639 -347 601C-400.8 563.1 -465.9 546.2 -505.6 505.6C-545.2 465 -559.5 400.7 -602.8 348C-646 295.3 -718.4 254.1 -738.9 198C-759.5 141.9 -728.2 71 -697 0L0 0Z" fill="#e5eaf7"></path><path d="M0 500C-46.2 501.6 -92.4 503.1 -129.8 484.3C-167.1 465.4 -195.4 426 -231.3 400.7C-267.2 375.4 -310.6 364.1 -337.1 337.1C-363.5 310 -373 267.2 -401.8 232C-430.7 196.8 -478.9 169.4 -492.6 132C-506.3 94.6 -485.5 47.3 -464.7 0L0 0Z" fill="#b0c2e7"></path><path d="M0 250C-23.1 250.8 -46.2 251.6 -64.9 242.1C-83.5 232.7 -97.7 213 -115.7 200.3C-133.6 187.7 -155.3 182.1 -168.5 168.5C-181.7 155 -186.5 133.6 -200.9 116C-215.3 98.4 -239.5 84.7 -246.3 66C-253.2 47.3 -242.7 23.7 -232.3 0L0 0Z" fill="#95afdf"></path></g><g transform="translate(0, 900)"><path d="M0 -739C63.7 -728.8 127.4 -718.6 188.4 -703.2C249.4 -687.7 307.7 -667 371.5 -643.5C435.3 -619.9 504.6 -593.5 540.9 -540.9C577.3 -488.4 580.6 -409.7 602.8 -348C624.9 -286.3 666 -241.5 695.5 -186.3C725 -131.2 743 -65.6 761 0L0 0Z" fill="#e5eaf7"></path><path d="M0 -492.7C42.5 -485.9 84.9 -479.1 125.6 -468.8C166.3 -458.5 205.1 -444.7 247.7 -429C290.2 -413.3 336.4 -395.7 360.6 -360.6C384.8 -325.6 387.1 -273.1 401.8 -232C416.6 -190.9 444 -161 463.6 -124.2C483.3 -87.5 495.3 -43.7 507.3 0L0 0Z" fill="#b0c2e7"></path><path d="M0 -246.3C21.2 -242.9 42.5 -239.5 62.8 -234.4C83.1 -229.2 102.6 -222.3 123.8 -214.5C145.1 -206.6 168.2 -197.8 180.3 -180.3C192.4 -162.8 193.5 -136.6 200.9 -116C208.3 -95.4 222 -80.5 231.8 -62.1C241.7 -43.7 247.7 -21.9 253.7 0L0 0Z" fill="#95afdf"></path></g></svg>