<svg id="visual" viewBox="0 0 2200 900" width="2200" height="900" xmlns="http://www.w3.org/2000/svg" xmlns:xlink="http://www.w3.org/1999/xlink" version="1.1"><rect x="0" y="0" width="2200" height="900" fill="#FFFFFF"></rect><path d="M1026 900L1016 878.5C1006 857 986 814 1031 771.2C1076 728.3 1186 685.7 1213.7 642.8C1241.3 600 1186.7 557 1143.2 514.2C1099.7 471.3 1067.3 428.7 1033.2 385.8C999 343 963 300 1039 257.2C1115 214.3 1303 171.7 1339.3 128.8C1375.7 86 1260.3 43 1202.7 21.5L1145 0L2200 0L2200 21.5C2200 43 2200 86 2200 128.8C2200 171.7 2200 214.3 2200 257.2C2200 300 2200 343 2200 385.8C2200 428.7 2200 471.3 2200 514.2C2200 557 2200 600 2200 642.8C2200 685.7 2200 728.3 2200 771.2C2200 814 2200 857 2200 878.5L2200 900Z" fill="#4a7cc7" stroke-linecap="round" stroke-linejoin="miter"></path></svg>